<svg xmlns="http://www.w3.org/2000/svg" viewBox="0 0 24 24" fill="none">
<path class="st0" d="M12,14.6c1.4,0,2.6-1.2,2.6-2.6c0-1.4-1.2-2.6-2.6-2.6c-1.4,0-2.6,1.2-2.6,2.6C9.4,13.4,10.6,14.6,12,14.6z
	 M18.4,14.6c-0.1,0.3-0.1,0.5-0.1,0.8c0.1,0.3,0.2,0.5,0.4,0.7l0.1,0.1c0.2,0.2,0.3,0.4,0.4,0.6c0.1,0.2,0.1,0.4,0.1,0.7
	s0,0.5-0.1,0.7c-0.1,0.2-0.2,0.4-0.4,0.6c-0.2,0.2-0.4,0.3-0.6,0.4c-0.2,0.1-0.4,0.1-0.7,0.1s-0.5,0-0.7-0.1
	c-0.2-0.1-0.4-0.2-0.6-0.4l-0.1-0.1c-0.2-0.2-0.5-0.3-0.7-0.4s-0.6,0-0.8,0.1c-0.3,0.1-0.5,0.3-0.6,0.5c-0.2,0.2-0.2,0.5-0.2,0.8
	v0.1c0,0.5-0.2,0.9-0.5,1.2c-0.3,0.3-0.8,0.5-1.2,0.5c-0.5,0-0.9-0.2-1.2-0.5c-0.3-0.3-0.5-0.8-0.5-1.2v-0.1c0-0.3-0.1-0.6-0.3-0.8
	c-0.2-0.2-0.4-0.4-0.7-0.5c-0.3-0.1-0.5-0.1-0.8-0.1c-0.3,0.1-0.5,0.2-0.7,0.4l-0.1,0.1c-0.2,0.2-0.4,0.3-0.6,0.4
	c-0.2,0.1-0.4,0.1-0.7,0.1c-0.2,0-0.5,0-0.7-0.1c-0.2-0.1-0.4-0.2-0.6-0.4c-0.2-0.2-0.3-0.4-0.4-0.6c-0.1-0.2-0.1-0.4-0.1-0.7
	c0-0.2,0-0.5,0.1-0.7c0.1-0.2,0.2-0.4,0.4-0.6l0.1-0.1c0.2-0.2,0.3-0.5,0.4-0.7c0.1-0.3,0-0.6-0.1-0.8c-0.1-0.3-0.3-0.5-0.5-0.6
	c-0.2-0.2-0.5-0.2-0.8-0.2H4.2c-0.5,0-0.9-0.2-1.2-0.5c-0.3-0.3-0.5-0.8-0.5-1.2c0-0.5,0.2-0.9,0.5-1.2c0.3-0.3,0.8-0.5,1.2-0.5h0.1
	c0.3,0,0.6-0.1,0.8-0.3c0.2-0.2,0.4-0.4,0.5-0.7c0.1-0.3,0.1-0.5,0.1-0.8C5.7,8.3,5.5,8,5.3,7.8L5.3,7.8C5.1,7.6,5,7.4,4.9,7.2
	C4.8,7,4.8,6.8,4.8,6.6c0-0.2,0-0.5,0.1-0.7C5,5.7,5.1,5.5,5.3,5.3C5.4,5.2,5.6,5.1,5.8,5C6,4.9,6.3,4.8,6.5,4.8
	c0.2,0,0.5,0,0.7,0.1c0.2,0.1,0.4,0.2,0.6,0.4l0.1,0.1C8,5.6,8.2,5.7,8.5,5.8c0.3,0.1,0.6,0,0.8-0.1h0.1C9.7,5.6,9.9,5.4,10,5.2
	c0.2-0.2,0.2-0.5,0.2-0.8V4.2c0-0.5,0.2-0.9,0.5-1.2c0.3-0.3,0.8-0.5,1.2-0.5c0.5,0,0.9,0.2,1.2,0.5c0.3,0.3,0.5,0.8,0.5,1.2v0.1
	c0,0.3,0.1,0.5,0.2,0.8s0.4,0.4,0.6,0.5c0.3,0.1,0.5,0.1,0.8,0.1c0.3-0.1,0.5-0.2,0.7-0.4l0.1-0.1c0.2-0.2,0.4-0.3,0.6-0.4
	c0.2-0.1,0.4-0.1,0.7-0.1c0.2,0,0.5,0,0.7,0.1c0.2,0.1,0.4,0.2,0.6,0.4c0.2,0.2,0.3,0.4,0.4,0.6c0.1,0.2,0.1,0.4,0.1,0.7
	c0,0.2,0,0.5-0.1,0.7c-0.1,0.2-0.2,0.4-0.4,0.6l-0.1,0.1c-0.2,0.2-0.3,0.5-0.4,0.7c-0.1,0.3,0,0.6,0.1,0.8v0.1
	c0.1,0.3,0.3,0.5,0.5,0.6c0.2,0.2,0.5,0.2,0.8,0.2h0.1c0.5,0,0.9,0.2,1.2,0.5c0.3,0.3,0.5,0.8,0.5,1.2c0,0.5-0.2,0.9-0.5,1.2
	c-0.3,0.3-0.8,0.5-1.2,0.5h-0.1c-0.3,0-0.5,0.1-0.8,0.2C18.7,14.1,18.5,14.3,18.4,14.6z" stroke="currentColor" vector-effect="non-scaling-stroke" stroke-width="1.75" stroke-linecap="round" stroke-linejoin="round" />
</svg>
